<svg xmlns="http://www.w3.org/2000/svg" width="165" height="54" viewBox="0 0 165 54" role="img" aria-label="LINKEDIN"><title>LINKEDIN</title><style>.wobble{animation:wobble 3.2s ease-in-out infinite;transform-box:fill-box;transform-origin:center}@keyframes wobble{0%,100%{transform:rotate(0) scale(1)}30%{transform:rotate(-7deg) scale(1.05)}70%{transform:rotate(6deg) scale(1.03)}}.pulse{animation:pulse 1.6s ease-in-out infinite}@keyframes pulse{0%,100%{opacity:1}50%{opacity:.2}}.glow{animation:glow 5s ease-in-out infinite}@keyframes glow{0%,100%{opacity:1}50%{opacity:.65}}.spin{animation:spin 60s linear infinite;transform-box:fill-box;transform-origin:center}@keyframes spin{to{transform:rotate(360deg)}}.s24{animation-duration:24s}.s8{animation-duration:8s}.s11{animation-duration:11s}.rev{animation-direction:reverse}.slow{animation-duration:5s}@media (prefers-reduced-motion:reduce){*{animation:none!important}}</style><defs><filter id="soft" x="-20%" y="-40%" width="140%" height="180%"><feGaussianBlur stdDeviation="4"/></filter><pattern id="halftone" width="10" height="10" patternUnits="userSpaceOnUse"><circle cx="5" cy="5" r="1.4" fill="#fff" fill-opacity=".07"/></pattern><linearGradient id="bar" x1="0" x2="1"><stop offset="0" stop-color="#e5352b"/><stop offset=".5" stop-color="#ff6a1f"/><stop offset="1" stop-color="#ffce45"/></linearGradient></defs><rect x="7" y="7" width="156.6" height="46" fill="#000" fill-opacity=".55"/><rect x="2" y="2" width="156.6" height="46" fill="#120d0b" stroke="#f4ead2" stroke-width="3"/><path d="M20.447 20.452h-3.554v-5.569c0-1.328-.027-3.037-1.852-3.037-1.853 0-2.136 1.445-2.136 2.939v5.667H9.351V9h3.414v1.561h.046c.477-.9 1.637-1.85 3.37-1.85 3.601 0 4.267 2.37 4.267 5.455v6.286zM5.337 7.433c-1.144 0-2.063-.926-2.063-2.065 0-1.138.92-2.063 2.063-2.063 1.14 0 2.064.925 2.064 2.063 0 1.139-.925 2.065-2.064 2.065zm1.782 13.019H3.555V9h3.564v11.452zM22.225 0H1.771C.792 0 0 .774 0 1.729v20.542C0 23.227.792 24 1.771 24h20.451C23.2 24 24 23.227 24 22.271V1.729C24 .774 23.2 0 22.222 0h.003z" transform="translate(18 14) scale(0.9167)" fill="#f4ead2"/><path d="M52.3 30.8V19.2H54.8V28.7H60.7V30.8ZM63.4 30.8V19.2H65.9V30.8ZM69.5 30.8V19.2H71.8L76.5 25.5Q76.6 25.6 76.8 25.8Q76.9 26 77.1 26.2Q77.2 26.4 77.2 26.5L77.3 26.5Q77.3 26.2 77.3 26Q77.3 25.7 77.3 25.5V19.2H79.7V30.8H77.4L72.6 24.4Q72.4 24.2 72.3 23.9Q72.1 23.6 72 23.4L71.9 23.4Q71.9 23.7 71.9 23.9Q71.9 24.2 71.9 24.4V30.8ZM83.3 30.8V19.2H85.9V24.5L90.8 19.2H94L89.5 23.9L94 30.8H91L87.8 25.7L85.9 27.4V30.8ZM96.7 30.8V19.2H106V21.2H99.2V23.8H105.2V25.9H99.2V28.7H106.1V30.8ZM109.3 30.8V19.2H114.1Q115.9 19.2 117.2 19.8Q118.4 20.4 119.1 21.7Q119.8 23 119.8 25Q119.8 27 119.1 28.3Q118.4 29.6 117.2 30.2Q115.9 30.8 114.1 30.8ZM111.8 28.7H114Q114.8 28.7 115.4 28.5Q116 28.3 116.4 27.9Q116.8 27.4 117 26.8Q117.2 26.1 117.2 25.3V24.8Q117.2 23.9 117 23.2Q116.8 22.6 116.4 22.1Q116 21.7 115.4 21.5Q114.8 21.2 114 21.2H111.8ZM122.9 30.8V19.2H125.4V30.8ZM129 30.8V19.2H131.4L136.1 25.5Q136.2 25.6 136.3 25.8Q136.5 26 136.6 26.2Q136.7 26.4 136.8 26.5L136.9 26.5Q136.9 26.2 136.9 26Q136.9 25.7 136.9 25.5V19.2H139.3V30.8H136.9L132.1 24.4Q132 24.2 131.8 23.9Q131.6 23.6 131.5 23.4L131.4 23.4Q131.4 23.7 131.4 23.9Q131.4 24.2 131.4 24.4V30.8Z" fill="#f4ead2"/></svg>